<mxfile host="drawio-plugin" modified="2022-01-20T20:40:17.564Z" agent="5.0 (Windows NT 6.2; Win64; x64) AppleWebKit/537.36 (KHTML, like Gecko) Chrome/89.0.4389.114 Safari/537.36" version="15.5.4" etag="wViiq522tq7AKoH6_zu2" type="embed"><diagram id="7mcX9zKy2FywuengIeIi" name="Page-1"><mxGraphModel dx="3769" dy="1217" grid="0" gridSize="10" guides="1" tooltips="1" connect="1" arrows="1" fold="1" page="0" pageScale="1" pageWidth="850" pageHeight="1100" math="0" shadow="0"><root><mxCell id="0"/><mxCell id="1" parent="0"/><mxCell id="2" value="Recipes" style="text;html=1;strokeColor=none;fillColor=none;align=center;verticalAlign=middle;whiteSpace=wrap;rounded=0;fontSize=30;" vertex="1" parent="1"><mxGeometry x="-395" y="40" width="60" height="30" as="geometry"/></mxCell><mxCell id="4" value="&lt;p style=&quot;line-height: 0.4&quot;&gt;&lt;/p&gt;&lt;h1 style=&quot;text-align: center&quot;&gt;&lt;span style=&quot;line-height: 0.8&quot;&gt;recipe_id&lt;/span&gt;&lt;/h1&gt;&lt;h1 style=&quot;text-align: center&quot;&gt;&lt;span style=&quot;font-weight: normal&quot;&gt;&lt;font size=&quot;1&quot;&gt;&lt;i style=&quot;font-size: 18px ; line-height: 0.2&quot;&gt;PK&lt;/i&gt;&lt;/font&gt;&lt;/span&gt;&lt;br&gt;&lt;/h1&gt;&lt;p&gt;&lt;/p&gt;" style="text;html=1;strokeColor=none;fillColor=none;spacing=5;spacingTop=-20;whiteSpace=wrap;overflow=hidden;rounded=0;fontSize=20;" vertex="1" parent="1"><mxGeometry x="-620" y="110" width="190" height="140" as="geometry"/></mxCell><mxCell id="5" value="&lt;p style=&quot;line-height: 0.4&quot;&gt;&lt;/p&gt;&lt;h1 style=&quot;text-align: center&quot;&gt;&lt;span style=&quot;line-height: 0.8&quot;&gt;recipe_name&lt;/span&gt;&lt;/h1&gt;&lt;p&gt;&lt;/p&gt;" style="text;html=1;strokeColor=none;fillColor=none;spacing=5;spacingTop=-20;whiteSpace=wrap;overflow=hidden;rounded=0;fontSize=20;" vertex="1" parent="1"><mxGeometry x="-310" y="110" width="260" height="80" as="geometry"/></mxCell><mxCell id="8" value="" style="strokeWidth=2;html=1;shape=mxgraph.flowchart.annotation_2;align=left;labelPosition=right;pointerEvents=1;fontSize=18;rotation=90;" vertex="1" parent="1"><mxGeometry x="-390" y="-60" width="50" height="330" as="geometry"/></mxCell><mxCell id="9" value="" style="strokeWidth=2;html=1;shape=mxgraph.flowchart.annotation_2;align=left;labelPosition=right;pointerEvents=1;fontSize=18;rotation=90;" vertex="1" parent="1"><mxGeometry x="-390.30999999999995" y="59.06" width="50" height="681.88" as="geometry"/></mxCell><mxCell id="10" value="" style="line;strokeWidth=2;direction=south;html=1;fontSize=18;align=center;" vertex="1" parent="1"><mxGeometry x="-370" y="100" width="10" height="300" as="geometry"/></mxCell><mxCell id="11" value="&lt;h1&gt;ingredient_id&lt;/h1&gt;&lt;p&gt;&lt;i&gt;PK&lt;/i&gt;&lt;/p&gt;" style="text;html=1;strokeColor=none;fillColor=none;spacing=5;spacingTop=-20;whiteSpace=wrap;overflow=hidden;rounded=0;fontSize=18;align=center;" vertex="1" parent="1"><mxGeometry x="-820" y="430" width="240" height="120" as="geometry"/></mxCell><mxCell id="12" value="&lt;h1&gt;ingredient_name&lt;/h1&gt;" style="text;html=1;strokeColor=none;fillColor=none;spacing=5;spacingTop=-20;whiteSpace=wrap;overflow=hidden;rounded=0;fontSize=18;align=center;" vertex="1" parent="1"><mxGeometry x="-500" y="430" width="305" height="120" as="geometry"/></mxCell><mxCell id="13" value="&lt;h1&gt;ingredient_unit&lt;/h1&gt;" style="text;html=1;strokeColor=none;fillColor=none;spacing=5;spacingTop=-20;whiteSpace=wrap;overflow=hidden;rounded=0;fontSize=18;align=center;" vertex="1" parent="1"><mxGeometry x="-150" y="430" width="270" height="120" as="geometry"/></mxCell><mxCell id="14" value="" style="line;strokeWidth=2;direction=south;html=1;fontSize=18;align=center;" vertex="1" parent="1"><mxGeometry x="-370" y="380" width="10" height="50" as="geometry"/></mxCell><mxCell id="15" value="Steps" style="text;html=1;strokeColor=none;fillColor=none;align=center;verticalAlign=middle;whiteSpace=wrap;rounded=0;fontSize=30;" vertex="1" parent="1"><mxGeometry x="891" y="40" width="60" height="30" as="geometry"/></mxCell><mxCell id="16" value="&lt;p style=&quot;line-height: 0.4&quot;&gt;&lt;/p&gt;&lt;h1 style=&quot;text-align: center&quot;&gt;&lt;span style=&quot;line-height: 0.8&quot;&gt;step_id&lt;/span&gt;&lt;/h1&gt;&lt;h1 style=&quot;text-align: center&quot;&gt;&lt;span style=&quot;font-weight: normal&quot;&gt;&lt;font size=&quot;1&quot;&gt;&lt;i style=&quot;font-size: 18px ; line-height: 0.2&quot;&gt;PK&lt;/i&gt;&lt;/font&gt;&lt;/span&gt;&lt;br&gt;&lt;/h1&gt;&lt;p&gt;&lt;/p&gt;" style="text;html=1;strokeColor=none;fillColor=none;spacing=5;spacingTop=-20;whiteSpace=wrap;overflow=hidden;rounded=0;fontSize=20;" vertex="1" parent="1"><mxGeometry x="376" y="120" width="190" height="140" as="geometry"/></mxCell><mxCell id="17" value="&lt;p style=&quot;line-height: 0.4&quot;&gt;&lt;/p&gt;&lt;h1 style=&quot;text-align: center&quot;&gt;&lt;span style=&quot;line-height: 0.8&quot;&gt;step_order&lt;/span&gt;&lt;/h1&gt;&lt;p&gt;&lt;/p&gt;" style="text;html=1;strokeColor=none;fillColor=none;spacing=5;spacingTop=-20;whiteSpace=wrap;overflow=hidden;rounded=0;fontSize=20;" vertex="1" parent="1"><mxGeometry x="987" y="120" width="220" height="80" as="geometry"/></mxCell><mxCell id="18" value="" style="strokeWidth=2;html=1;shape=mxgraph.flowchart.annotation_2;align=left;labelPosition=right;pointerEvents=1;fontSize=18;rotation=90;" vertex="1" parent="1"><mxGeometry x="896" y="-60" width="50" height="330" as="geometry"/></mxCell><mxCell id="20" value="" style="line;strokeWidth=2;direction=south;html=1;fontSize=18;align=center;" vertex="1" parent="1"><mxGeometry x="916" y="100" width="10" height="300" as="geometry"/></mxCell><mxCell id="21" value="&lt;h1&gt;step_id&lt;/h1&gt;&lt;p&gt;&lt;i&gt;PK&lt;/i&gt;&lt;/p&gt;" style="text;html=1;strokeColor=none;fillColor=none;spacing=5;spacingTop=-20;whiteSpace=wrap;overflow=hidden;rounded=0;fontSize=18;align=center;" vertex="1" parent="1"><mxGeometry x="316" y="570" width="150" height="120" as="geometry"/></mxCell><mxCell id="22" value="&lt;h1&gt;step_ingredients&lt;/h1&gt;" style="text;html=1;strokeColor=none;fillColor=none;spacing=5;spacingTop=-20;whiteSpace=wrap;overflow=hidden;rounded=0;fontSize=18;align=center;" vertex="1" parent="1"><mxGeometry x="768.5" y="430" width="305" height="120" as="geometry"/></mxCell><mxCell id="23" value="&lt;h1&gt;step_id&lt;/h1&gt;&lt;div&gt;FK&lt;/div&gt;" style="text;html=1;strokeColor=none;fillColor=none;spacing=5;spacingTop=-20;whiteSpace=wrap;overflow=hidden;rounded=0;fontSize=18;align=center;" vertex="1" parent="1"><mxGeometry x="596" y="570" width="160" height="120" as="geometry"/></mxCell><mxCell id="24" value="" style="line;strokeWidth=2;direction=south;html=1;fontSize=18;align=center;" vertex="1" parent="1"><mxGeometry x="916" y="380" width="10" height="50" as="geometry"/></mxCell><mxCell id="25" value="&lt;p style=&quot;line-height: 0.4&quot;&gt;&lt;/p&gt;&lt;h1 style=&quot;text-align: center&quot;&gt;&lt;span style=&quot;line-height: 0.8&quot;&gt;step_text&lt;/span&gt;&lt;/h1&gt;&lt;p&gt;&lt;/p&gt;" style="text;html=1;strokeColor=none;fillColor=none;spacing=5;spacingTop=-20;whiteSpace=wrap;overflow=hidden;rounded=0;fontSize=20;" vertex="1" parent="1"><mxGeometry x="661" y="120" width="190" height="80" as="geometry"/></mxCell><mxCell id="27" value="&lt;p style=&quot;line-height: 0.4&quot;&gt;&lt;/p&gt;&lt;h1 style=&quot;text-align: center&quot;&gt;&lt;span style=&quot;line-height: 0.8&quot;&gt;recipe_id&lt;/span&gt;&lt;/h1&gt;&lt;h1 style=&quot;text-align: center&quot;&gt;&lt;span style=&quot;font-weight: normal&quot;&gt;&lt;font size=&quot;1&quot;&gt;&lt;i style=&quot;font-size: 18px ; line-height: 0.2&quot;&gt;PK&lt;/i&gt;&lt;/font&gt;&lt;/span&gt;&lt;br&gt;&lt;/h1&gt;&lt;p&gt;&lt;/p&gt;" style="text;html=1;strokeColor=none;fillColor=none;spacing=5;spacingTop=-20;whiteSpace=wrap;overflow=hidden;rounded=0;fontSize=20;" vertex="1" parent="1"><mxGeometry x="1286" y="120" width="190" height="140" as="geometry"/></mxCell><mxCell id="28" value="" style="shape=partialRectangle;whiteSpace=wrap;html=1;bottom=1;right=1;left=1;top=0;fillColor=none;routingCenterX=-0.5;fontSize=18;align=center;rotation=-180;strokeWidth=2;" vertex="1" parent="1"><mxGeometry x="456" y="105" width="300" height="24" as="geometry"/></mxCell><mxCell id="29" value="" style="shape=partialRectangle;whiteSpace=wrap;html=1;bottom=1;right=1;left=1;top=0;fillColor=none;routingCenterX=-0.5;fontSize=18;align=center;rotation=-180;strokeWidth=2;" vertex="1" parent="1"><mxGeometry x="1086" y="105" width="300" height="24" as="geometry"/></mxCell><mxCell id="30" value="" style="strokeWidth=2;html=1;shape=mxgraph.flowchart.annotation_2;align=left;labelPosition=right;pointerEvents=1;fontSize=18;rotation=90;" vertex="1" parent="1"><mxGeometry x="896" width="50" height="1068" as="geometry"/></mxCell><mxCell id="31" value="&lt;h1&gt;ingredient_id&lt;/h1&gt;&lt;div&gt;FK&lt;/div&gt;" style="text;html=1;strokeColor=none;fillColor=none;spacing=5;spacingTop=-20;whiteSpace=wrap;overflow=hidden;rounded=0;fontSize=18;align=center;" vertex="1" parent="1"><mxGeometry x="996" y="570" width="239" height="120" as="geometry"/></mxCell><mxCell id="32" value="&lt;h1&gt;quantity&lt;/h1&gt;" style="text;html=1;strokeColor=none;fillColor=none;spacing=5;spacingTop=-20;whiteSpace=wrap;overflow=hidden;rounded=0;fontSize=18;align=center;" vertex="1" parent="1"><mxGeometry x="1356" y="570" width="160" height="120" as="geometry"/></mxCell><mxCell id="33" value="" style="line;strokeWidth=2;direction=south;html=1;fontSize=18;align=center;" vertex="1" parent="1"><mxGeometry x="671" y="533" width="10" height="27" as="geometry"/></mxCell><mxCell id="34" value="" style="line;strokeWidth=2;direction=south;html=1;fontSize=18;align=center;" vertex="1" parent="1"><mxGeometry x="1126" y="532" width="10" height="27" as="geometry"/></mxCell></root></mxGraphModel></diagram></mxfile>